<svg xmlns="http://www.w3.org/2000/svg" version="1.1" xmlns:xlink="http://www.w3.org/1999/xlink" xmlns:svgjs="http://svgjs.com/svgjs" width="1440" height="560" preserveAspectRatio="none" viewBox="0 0 1440 560"><g mask="url(&quot;#SvgjsMask1105&quot;)" fill="none"><rect width="1440" height="560" x="0" y="0" fill="url(#SvgjsLinearGradient1106)"></rect><path d="M-75.72 350.84L-75.72 350.84" stroke="#132e65" stroke-width="1.5"></path><path d="M-75.72 350.84L72.37 367.07" stroke="#132e65" stroke-width="1.5"></path><path d="M-75.72 350.84L-39.67 496.58" stroke="#132e65" stroke-width="1.5"></path><path d="M-39.67 496.58L-39.67 496.58" stroke="#132e65" stroke-width="1.5"></path><path d="M-39.67 496.58L72.37 367.07" stroke="#132e65" stroke-width="1.5"></path><path d="M-45.62 690.72L-45.62 690.72" stroke="#132e65" stroke-width="1.5"></path><path d="M-45.62 690.72L60.47 655.45" stroke="#132e65" stroke-width="1.5"></path><path d="M-45.62 690.72L-39.67 496.58" stroke="#132e65" stroke-width="1.5"></path><path d="M-45.62 690.72L229.15 669.83" stroke="#132e65" stroke-width="1.5"></path><path d="M-45.62 690.72L-75.72 350.84" stroke="#132e65" stroke-width="1.5"></path><path d="M72.37 367.07L72.37 367.07" stroke="#132e65" stroke-width="1.5"></path><path d="M72.37 367.07L203.19 400.3" stroke="#132e65" stroke-width="1.5"></path><path d="M72.37 367.07L256.14 496.1" stroke="#132e65" stroke-width="1.5"></path><path d="M72.37 367.07L60.47 655.45" stroke="#132e65" stroke-width="1.5"></path><path d="M60.47 655.45L60.47 655.45" stroke="#132e65" stroke-width="1.5"></path><path d="M60.47 655.45L229.15 669.83" stroke="#132e65" stroke-width="1.5"></path><path d="M60.47 655.45L-39.67 496.58" stroke="#132e65" stroke-width="1.5"></path><path d="M60.47 655.45L256.14 496.1" stroke="#132e65" stroke-width="1.5"></path><path d="M203.19 400.3L203.19 400.3" stroke="#132e65" stroke-width="1.5"></path><path d="M203.19 400.3L256.14 496.1" stroke="#132e65" stroke-width="1.5"></path><path d="M256.14 496.1L256.14 496.1" stroke="#132e65" stroke-width="1.5"></path><path d="M256.14 496.1L371.52 521.56" stroke="#132e65" stroke-width="1.5"></path><path d="M229.15 669.83L229.15 669.83" stroke="#132e65" stroke-width="1.5"></path><path d="M229.15 669.83L256.14 496.1" stroke="#132e65" stroke-width="1.5"></path><path d="M229.15 669.83L371.52 521.56" stroke="#132e65" stroke-width="1.5"></path><path d="M229.15 669.83L203.19 400.3" stroke="#132e65" stroke-width="1.5"></path><path d="M407.57 389.06L407.57 389.06" stroke="#132e65" stroke-width="1.5"></path><path d="M407.57 389.06L533.5 343.51" stroke="#132e65" stroke-width="1.5"></path><path d="M407.57 389.06L371.52 521.56" stroke="#132e65" stroke-width="1.5"></path><path d="M407.57 389.06L256.14 496.1" stroke="#132e65" stroke-width="1.5"></path><path d="M407.57 389.06L504.9 552.49" stroke="#132e65" stroke-width="1.5"></path><path d="M371.52 521.56L371.52 521.56" stroke="#132e65" stroke-width="1.5"></path><path d="M371.52 521.56L504.9 552.49" stroke="#132e65" stroke-width="1.5"></path><path d="M371.52 521.56L203.19 400.3" stroke="#132e65" stroke-width="1.5"></path><path d="M533.5 343.51L533.5 343.51" stroke="#132e65" stroke-width="1.5"></path><path d="M533.5 343.51L640.45 389.01" stroke="#132e65" stroke-width="1.5"></path><path d="M533.5 343.51L504.9 552.49" stroke="#132e65" stroke-width="1.5"></path><path d="M504.9 552.49L504.9 552.49" stroke="#132e65" stroke-width="1.5"></path><path d="M504.9 552.49L654.59 543.06" stroke="#132e65" stroke-width="1.5"></path><path d="M504.9 552.49L543.22 705.65" stroke="#132e65" stroke-width="1.5"></path><path d="M504.9 552.49L640.45 389.01" stroke="#132e65" stroke-width="1.5"></path><path d="M543.22 705.65L543.22 705.65" stroke="#132e65" stroke-width="1.5"></path><path d="M543.22 705.65L682.7 696.87" stroke="#132e65" stroke-width="1.5"></path><path d="M640.45 389.01L640.45 389.01" stroke="#132e65" stroke-width="1.5"></path><path d="M640.45 389.01L654.59 543.06" stroke="#132e65" stroke-width="1.5"></path><path d="M640.45 389.01L798.45 337.94" stroke="#132e65" stroke-width="1.5"></path><path d="M640.45 389.01L817.42 500.78" stroke="#132e65" stroke-width="1.5"></path><path d="M654.59 543.06L654.59 543.06" stroke="#132e65" stroke-width="1.5"></path><path d="M654.59 543.06L682.7 696.87" stroke="#132e65" stroke-width="1.5"></path><path d="M654.59 543.06L817.42 500.78" stroke="#132e65" stroke-width="1.5"></path><path d="M654.59 543.06L543.22 705.65" stroke="#132e65" stroke-width="1.5"></path><path d="M654.59 543.06L533.5 343.51" stroke="#132e65" stroke-width="1.5"></path><path d="M682.7 696.87L682.7 696.87" stroke="#132e65" stroke-width="1.5"></path><path d="M682.7 696.87L860.61 667.18" stroke="#132e65" stroke-width="1.5"></path><path d="M682.7 696.87L504.9 552.49" stroke="#132e65" stroke-width="1.5"></path><path d="M682.7 696.87L817.42 500.78" stroke="#132e65" stroke-width="1.5"></path><path d="M832.68 92.89L832.68 92.89" stroke="#132e65" stroke-width="1.5"></path><path d="M832.68 92.89L959.45 41.56" stroke="#132e65" stroke-width="1.5"></path><path d="M832.68 92.89L959.88 244.63" stroke="#132e65" stroke-width="1.5"></path><path d="M832.68 92.89L1001.22 -40.19" stroke="#132e65" stroke-width="1.5"></path><path d="M832.68 92.89L798.45 337.94" stroke="#132e65" stroke-width="1.5"></path><path d="M832.68 92.89L1130.3 100.03" stroke="#132e65" stroke-width="1.5"></path><path d="M832.68 92.89L1099.58 -44.38" stroke="#132e65" stroke-width="1.5"></path><path d="M798.45 337.94L798.45 337.94" stroke="#132e65" stroke-width="1.5"></path><path d="M798.45 337.94L817.42 500.78" stroke="#132e65" stroke-width="1.5"></path><path d="M798.45 337.94L959.88 244.63" stroke="#132e65" stroke-width="1.5"></path><path d="M817.42 500.78L817.42 500.78" stroke="#132e65" stroke-width="1.5"></path><path d="M817.42 500.78L973.08 536.51" stroke="#132e65" stroke-width="1.5"></path><path d="M817.42 500.78L860.61 667.18" stroke="#132e65" stroke-width="1.5"></path><path d="M817.42 500.78L984.59 381.07" stroke="#132e65" stroke-width="1.5"></path><path d="M860.61 667.18L860.61 667.18" stroke="#132e65" stroke-width="1.5"></path><path d="M860.61 667.18L993.85 646.46" stroke="#132e65" stroke-width="1.5"></path><path d="M1001.22 -40.19L1001.22 -40.19" stroke="#132e65" stroke-width="1.5"></path><path d="M1001.22 -40.19L959.45 41.56" stroke="#132e65" stroke-width="1.5"></path><path d="M959.45 41.56L959.45 41.56" stroke="#132e65" stroke-width="1.5"></path><path d="M959.88 244.63L959.88 244.63" stroke="#132e65" stroke-width="1.5"></path><path d="M959.88 244.63L984.59 381.07" stroke="#132e65" stroke-width="1.5"></path><path d="M959.88 244.63L1139.34 217.3" stroke="#132e65" stroke-width="1.5"></path><path d="M959.88 244.63L959.45 41.56" stroke="#132e65" stroke-width="1.5"></path><path d="M984.59 381.07L984.59 381.07" stroke="#132e65" stroke-width="1.5"></path><path d="M984.59 381.07L973.08 536.51" stroke="#132e65" stroke-width="1.5"></path><path d="M984.59 381.07L1147.46 364.78" stroke="#132e65" stroke-width="1.5"></path><path d="M984.59 381.07L798.45 337.94" stroke="#132e65" stroke-width="1.5"></path><path d="M984.59 381.07L1120.53 557.95" stroke="#132e65" stroke-width="1.5"></path><path d="M973.08 536.51L973.08 536.51" stroke="#132e65" stroke-width="1.5"></path><path d="M973.08 536.51L993.85 646.46" stroke="#132e65" stroke-width="1.5"></path><path d="M973.08 536.51L1120.53 557.95" stroke="#132e65" stroke-width="1.5"></path><path d="M973.08 536.51L860.61 667.18" stroke="#132e65" stroke-width="1.5"></path><path d="M973.08 536.51L1099.97 681.12" stroke="#132e65" stroke-width="1.5"></path><path d="M993.85 646.46L993.85 646.46" stroke="#132e65" stroke-width="1.5"></path><path d="M993.85 646.46L1099.97 681.12" stroke="#132e65" stroke-width="1.5"></path><path d="M1099.58 -44.38L1099.58 -44.38" stroke="#132e65" stroke-width="1.5"></path><path d="M1099.58 -44.38L1001.22 -40.19" stroke="#132e65" stroke-width="1.5"></path><path d="M1130.3 100.03L1130.3 100.03" stroke="#132e65" stroke-width="1.5"></path><path d="M1130.3 100.03L1139.34 217.3" stroke="#132e65" stroke-width="1.5"></path><path d="M1130.3 100.03L1276.58 96.71" stroke="#132e65" stroke-width="1.5"></path><path d="M1130.3 100.03L1099.58 -44.38" stroke="#132e65" stroke-width="1.5"></path><path d="M1130.3 100.03L959.45 41.56" stroke="#132e65" stroke-width="1.5"></path><path d="M1130.3 100.03L1001.22 -40.19" stroke="#132e65" stroke-width="1.5"></path><path d="M1139.34 217.3L1139.34 217.3" stroke="#132e65" stroke-width="1.5"></path><path d="M1139.34 217.3L1147.46 364.78" stroke="#132e65" stroke-width="1.5"></path><path d="M1139.34 217.3L1306.33 194.96" stroke="#132e65" stroke-width="1.5"></path><path d="M1139.34 217.3L1276.58 96.71" stroke="#132e65" stroke-width="1.5"></path><path d="M1147.46 364.78L1147.46 364.78" stroke="#132e65" stroke-width="1.5"></path><path d="M1147.46 364.78L1239.17 387.47" stroke="#132e65" stroke-width="1.5"></path><path d="M1147.46 364.78L1120.53 557.95" stroke="#132e65" stroke-width="1.5"></path><path d="M1147.46 364.78L1304.81 517.36" stroke="#132e65" stroke-width="1.5"></path><path d="M1147.46 364.78L959.88 244.63" stroke="#132e65" stroke-width="1.5"></path><path d="M1120.53 557.95L1120.53 557.95" stroke="#132e65" stroke-width="1.5"></path><path d="M1120.53 557.95L1099.97 681.12" stroke="#132e65" stroke-width="1.5"></path><path d="M1120.53 557.95L993.85 646.46" stroke="#132e65" stroke-width="1.5"></path><path d="M1120.53 557.95L1304.81 517.36" stroke="#132e65" stroke-width="1.5"></path><path d="M1099.97 681.12L1099.97 681.12" stroke="#132e65" stroke-width="1.5"></path><path d="M1292.88 -94.73L1292.88 -94.73" stroke="#132e65" stroke-width="1.5"></path><path d="M1292.88 -94.73L1430.04 -46.74" stroke="#132e65" stroke-width="1.5"></path><path d="M1292.88 -94.73L1276.58 96.71" stroke="#132e65" stroke-width="1.5"></path><path d="M1292.88 -94.73L1099.58 -44.38" stroke="#132e65" stroke-width="1.5"></path><path d="M1292.88 -94.73L1413.4 81.03" stroke="#132e65" stroke-width="1.5"></path><path d="M1292.88 -94.73L1130.3 100.03" stroke="#132e65" stroke-width="1.5"></path><path d="M1276.58 96.71L1276.58 96.71" stroke="#132e65" stroke-width="1.5"></path><path d="M1276.58 96.71L1306.33 194.96" stroke="#132e65" stroke-width="1.5"></path><path d="M1276.58 96.71L1413.4 81.03" stroke="#132e65" stroke-width="1.5"></path><path d="M1306.33 194.96L1306.33 194.96" stroke="#132e65" stroke-width="1.5"></path><path d="M1306.33 194.96L1433.88 200.47" stroke="#132e65" stroke-width="1.5"></path><path d="M1306.33 194.96L1413.4 81.03" stroke="#132e65" stroke-width="1.5"></path><path d="M1306.33 194.96L1130.3 100.03" stroke="#132e65" stroke-width="1.5"></path><path d="M1306.33 194.96L1239.17 387.47" stroke="#132e65" stroke-width="1.5"></path><path d="M1239.17 387.47L1239.17 387.47" stroke="#132e65" stroke-width="1.5"></path><path d="M1239.17 387.47L1304.81 517.36" stroke="#132e65" stroke-width="1.5"></path><path d="M1304.81 517.36L1304.81 517.36" stroke="#132e65" stroke-width="1.5"></path><path d="M1304.81 517.36L1397.77 501.07" stroke="#132e65" stroke-width="1.5"></path><path d="M1267.61 707.02L1267.61 707.02" stroke="#132e65" stroke-width="1.5"></path><path d="M1267.61 707.02L1099.97 681.12" stroke="#132e65" stroke-width="1.5"></path><path d="M1267.61 707.02L1451.65 686.51" stroke="#132e65" stroke-width="1.5"></path><path d="M1267.61 707.02L1304.81 517.36" stroke="#132e65" stroke-width="1.5"></path><path d="M1267.61 707.02L1120.53 557.95" stroke="#132e65" stroke-width="1.5"></path><path d="M1267.61 707.02L1397.77 501.07" stroke="#132e65" stroke-width="1.5"></path><path d="M1430.04 -46.74L1430.04 -46.74" stroke="#132e65" stroke-width="1.5"></path><path d="M1430.04 -46.74L1413.4 81.03" stroke="#132e65" stroke-width="1.5"></path><path d="M1413.4 81.03L1413.4 81.03" stroke="#132e65" stroke-width="1.5"></path><path d="M1413.4 81.03L1433.88 200.47" stroke="#132e65" stroke-width="1.5"></path><path d="M1413.4 81.03L1538.1 94.16" stroke="#132e65" stroke-width="1.5"></path><path d="M1433.88 200.47L1433.88 200.47" stroke="#132e65" stroke-width="1.5"></path><path d="M1446.83 386.58L1446.83 386.58" stroke="#132e65" stroke-width="1.5"></path><path d="M1446.83 386.58L1544.22 399.12" stroke="#132e65" stroke-width="1.5"></path><path d="M1446.83 386.58L1397.77 501.07" stroke="#132e65" stroke-width="1.5"></path><path d="M1446.83 386.58L1433.88 200.47" stroke="#132e65" stroke-width="1.5"></path><path d="M1397.77 501.07L1397.77 501.07" stroke="#132e65" stroke-width="1.5"></path><path d="M1397.77 501.07L1568.75 542.46" stroke="#132e65" stroke-width="1.5"></path><path d="M1451.65 686.51L1451.65 686.51" stroke="#132e65" stroke-width="1.5"></path><path d="M1451.65 686.51L1590.27 682.31" stroke="#132e65" stroke-width="1.5"></path><path d="M1581.82 -111.6L1581.82 -111.6" stroke="#132e65" stroke-width="1.5"></path><path d="M1581.82 -111.6L1430.04 -46.74" stroke="#132e65" stroke-width="1.5"></path><path d="M1538.1 94.16L1538.1 94.16" stroke="#132e65" stroke-width="1.5"></path><path d="M1538.1 94.16L1433.88 200.47" stroke="#132e65" stroke-width="1.5"></path><path d="M1538.1 94.16L1606.36 240.21" stroke="#132e65" stroke-width="1.5"></path><path d="M1538.1 94.16L1430.04 -46.74" stroke="#132e65" stroke-width="1.5"></path><path d="M1606.36 240.21L1606.36 240.21" stroke="#132e65" stroke-width="1.5"></path><path d="M1606.36 240.21L1544.22 399.12" stroke="#132e65" stroke-width="1.5"></path><path d="M1606.36 240.21L1433.88 200.47" stroke="#132e65" stroke-width="1.5"></path><path d="M1606.36 240.21L1446.83 386.58" stroke="#132e65" stroke-width="1.5"></path><path d="M1606.36 240.21L1413.4 81.03" stroke="#132e65" stroke-width="1.5"></path><path d="M1544.22 399.12L1544.22 399.12" stroke="#132e65" stroke-width="1.5"></path><path d="M1568.75 542.46L1568.75 542.46" stroke="#132e65" stroke-width="1.5"></path><path d="M1568.75 542.46L1590.27 682.31" stroke="#132e65" stroke-width="1.5"></path><path d="M1568.75 542.46L1544.22 399.12" stroke="#132e65" stroke-width="1.5"></path><path d="M1568.75 542.46L1451.65 686.51" stroke="#132e65" stroke-width="1.5"></path><path d="M1568.75 542.46L1446.83 386.58" stroke="#132e65" stroke-width="1.5"></path><path d="M1568.75 542.46L1304.81 517.36" stroke="#132e65" stroke-width="1.5"></path><path d="M1590.27 682.31L1590.27 682.31" stroke="#132e65" stroke-width="1.5"></path><path d="M1590.27 682.31L1397.77 501.07" stroke="#132e65" stroke-width="1.5"></path><path d="M1590.27 682.31L1544.22 399.12" stroke="#132e65" stroke-width="1.5"></path><path d="M1590.27 682.31L1267.61 707.02" stroke="#132e65" stroke-width="1.5"></path><circle r="5" cx="-75.72" cy="350.84" fill="#132e65"></circle><circle r="5" cx="-39.67" cy="496.58" fill="#132e65"></circle><circle r="5" cx="-45.62" cy="690.72" fill="#132e65"></circle><circle r="5" cx="72.37" cy="367.07" fill="#132e65"></circle><circle r="5" cx="60.47" cy="655.45" fill="#132e65"></circle><circle r="5" cx="203.19" cy="400.3" fill="#132e65"></circle><circle r="5" cx="256.14" cy="496.1" fill="#132e65"></circle><circle r="5" cx="229.15" cy="669.83" fill="#132e65"></circle><circle r="5" cx="407.57" cy="389.06" fill="#132e65"></circle><circle r="5" cx="371.52" cy="521.56" fill="#132e65"></circle><circle r="5" cx="533.5" cy="343.51" fill="#132e65"></circle><circle r="5" cx="504.9" cy="552.49" fill="#132e65"></circle><circle r="5" cx="543.22" cy="705.65" fill="#132e65"></circle><circle r="5" cx="640.45" cy="389.01" fill="#132e65"></circle><circle r="5" cx="654.59" cy="543.06" fill="#132e65"></circle><circle r="5" cx="682.7" cy="696.87" fill="#132e65"></circle><circle r="5" cx="832.68" cy="92.89" fill="#132e65"></circle><circle r="5" cx="798.45" cy="337.94" fill="#132e65"></circle><circle r="5" cx="817.42" cy="500.78" fill="#132e65"></circle><circle r="5" cx="860.61" cy="667.18" fill="#132e65"></circle><circle r="5" cx="1001.22" cy="-40.19" fill="#132e65"></circle><circle r="5" cx="959.45" cy="41.56" fill="#132e65"></circle><circle r="5" cx="959.88" cy="244.63" fill="#132e65"></circle><circle r="5" cx="984.59" cy="381.07" fill="#132e65"></circle><circle r="5" cx="973.08" cy="536.51" fill="#132e65"></circle><circle r="5" cx="993.85" cy="646.46" fill="#132e65"></circle><circle r="5" cx="1099.58" cy="-44.38" fill="#132e65"></circle><circle r="5" cx="1130.3" cy="100.03" fill="#132e65"></circle><circle r="5" cx="1139.34" cy="217.3" fill="#132e65"></circle><circle r="5" cx="1147.46" cy="364.78" fill="#132e65"></circle><circle r="5" cx="1120.53" cy="557.95" fill="#132e65"></circle><circle r="5" cx="1099.97" cy="681.12" fill="#132e65"></circle><circle r="5" cx="1292.88" cy="-94.73" fill="#132e65"></circle><circle r="5" cx="1276.58" cy="96.71" fill="#132e65"></circle><circle r="5" cx="1306.33" cy="194.96" fill="#132e65"></circle><circle r="5" cx="1239.17" cy="387.47" fill="#132e65"></circle><circle r="5" cx="1304.81" cy="517.36" fill="#132e65"></circle><circle r="5" cx="1267.61" cy="707.02" fill="#132e65"></circle><circle r="5" cx="1430.04" cy="-46.74" fill="#132e65"></circle><circle r="5" cx="1413.4" cy="81.03" fill="#132e65"></circle><circle r="5" cx="1433.88" cy="200.47" fill="#132e65"></circle><circle r="5" cx="1446.83" cy="386.58" fill="#132e65"></circle><circle r="5" cx="1397.77" cy="501.07" fill="#132e65"></circle><circle r="5" cx="1451.65" cy="686.51" fill="#132e65"></circle><circle r="5" cx="1581.82" cy="-111.6" fill="#132e65"></circle><circle r="5" cx="1538.1" cy="94.16" fill="#132e65"></circle><circle r="5" cx="1606.36" cy="240.21" fill="#132e65"></circle><circle r="5" cx="1544.22" cy="399.12" fill="#132e65"></circle><circle r="5" cx="1568.75" cy="542.46" fill="#132e65"></circle><circle r="5" cx="1590.27" cy="682.31" fill="#132e65"></circle><path d="M100.86 642.86L100.86 642.86" stroke="hsl(228.5, 77.2%, 51.5%)" stroke-width="1.5"></path><path d="M100.86 642.86L195.86 679.82" stroke="hsl(228.5, 77.2%, 51.5%)" stroke-width="1.5"></path><path d="M100.86 642.86L-69.04 696.7" stroke="hsl(228.5, 77.2%, 51.5%)" stroke-width="1.5"></path><path d="M100.86 642.86L-46.18 506.18" stroke="hsl(228.5, 77.2%, 51.5%)" stroke-width="1.5"></path><path d="M100.86 642.86L387.04 645" stroke="hsl(228.5, 77.2%, 51.5%)" stroke-width="1.5"></path><path d="M100.86 642.86L359.47 507.9" stroke="hsl(228.5, 77.2%, 51.5%)" stroke-width="1.5"></path><path d="M100.86 642.86L552.68 663.67" stroke="hsl(228.5, 77.2%, 51.5%)" stroke-width="1.5"></path><path d="M942.98 402.27L942.98 402.27" stroke="hsl(228.5, 77.2%, 51.5%)" stroke-width="1.5"></path><path d="M942.98 402.27L998.47 543.34" stroke="hsl(228.5, 77.2%, 51.5%)" stroke-width="1.5"></path><path d="M942.98 402.27L792.94 366.11" stroke="hsl(228.5, 77.2%, 51.5%)" stroke-width="1.5"></path><path d="M942.98 402.27L827.83 521.73" stroke="hsl(228.5, 77.2%, 51.5%)" stroke-width="1.5"></path><path d="M942.98 402.27L1124.96 361.02" stroke="hsl(228.5, 77.2%, 51.5%)" stroke-width="1.5"></path><path d="M942.98 402.27L999.52 222.8" stroke="hsl(228.5, 77.2%, 51.5%)" stroke-width="1.5"></path><path d="M942.98 402.27L1145.78 526.84" stroke="hsl(228.5, 77.2%, 51.5%)" stroke-width="1.5"></path><path d="M1134.22 206.29L1134.22 206.29" stroke="hsl(228.5, 77.2%, 51.5%)" stroke-width="1.5"></path><path d="M1134.22 206.29L1243.2 232.65" stroke="hsl(228.5, 77.2%, 51.5%)" stroke-width="1.5"></path><path d="M1134.22 206.29L1147.83 75.65" stroke="hsl(228.5, 77.2%, 51.5%)" stroke-width="1.5"></path><path d="M1134.22 206.29L999.52 222.8" stroke="hsl(228.5, 77.2%, 51.5%)" stroke-width="1.5"></path><path d="M1134.22 206.29L1124.96 361.02" stroke="hsl(228.5, 77.2%, 51.5%)" stroke-width="1.5"></path><path d="M1145.78 526.84L1145.78 526.84" stroke="hsl(228.5, 77.2%, 51.5%)" stroke-width="1.5"></path><path d="M1145.78 526.84L1262.8 495.46" stroke="hsl(228.5, 77.2%, 51.5%)" stroke-width="1.5"></path><path d="M1145.78 526.84L1099.88 642.84" stroke="hsl(228.5, 77.2%, 51.5%)" stroke-width="1.5"></path><path d="M1256.17 68.69L1256.17 68.69" stroke="hsl(228.5, 77.2%, 51.5%)" stroke-width="1.5"></path><path d="M1256.17 68.69L1147.83 75.65" stroke="hsl(228.5, 77.2%, 51.5%)" stroke-width="1.5"></path><path d="M1256.17 68.69L1243.2 232.65" stroke="hsl(228.5, 77.2%, 51.5%)" stroke-width="1.5"></path><path d="M1281.56 386.45L1281.56 386.45" stroke="hsl(228.5, 77.2%, 51.5%)" stroke-width="1.5"></path><path d="M1281.56 386.45L1262.8 495.46" stroke="hsl(228.5, 77.2%, 51.5%)" stroke-width="1.5"></path><path d="M1281.56 386.45L1426.95 385.63" stroke="hsl(228.5, 77.2%, 51.5%)" stroke-width="1.5"></path><path d="M1281.56 386.45L1243.2 232.65" stroke="hsl(228.5, 77.2%, 51.5%)" stroke-width="1.5"></path><path d="M1281.56 386.45L1124.96 361.02" stroke="hsl(228.5, 77.2%, 51.5%)" stroke-width="1.5"></path><path d="M1425.43 99.05L1425.43 99.05" stroke="hsl(228.5, 77.2%, 51.5%)" stroke-width="1.5"></path><path d="M1425.43 99.05L1442.61 231.71" stroke="hsl(228.5, 77.2%, 51.5%)" stroke-width="1.5"></path><path d="M1425.43 99.05L1256.17 68.69" stroke="hsl(228.5, 77.2%, 51.5%)" stroke-width="1.5"></path><path d="M1426.95 385.63L1426.95 385.63" stroke="hsl(228.5, 77.2%, 51.5%)" stroke-width="1.5"></path><path d="M1426.95 385.63L1442.61 231.71" stroke="hsl(228.5, 77.2%, 51.5%)" stroke-width="1.5"></path><path d="M1426.95 385.63L1582.71 373.55" stroke="hsl(228.5, 77.2%, 51.5%)" stroke-width="1.5"></path><path d="M1426.95 385.63L1395.49 547.06" stroke="hsl(228.5, 77.2%, 51.5%)" stroke-width="1.5"></path><path d="M1591.28 534.48L1591.28 534.48" stroke="hsl(228.5, 77.2%, 51.5%)" stroke-width="1.5"></path><path d="M1591.28 534.48L1595.13 688.1" stroke="hsl(228.5, 77.2%, 51.5%)" stroke-width="1.5"></path><path d="M1591.28 534.48L1582.71 373.55" stroke="hsl(228.5, 77.2%, 51.5%)" stroke-width="1.5"></path><path d="M1591.28 534.48L1395.49 547.06" stroke="hsl(228.5, 77.2%, 51.5%)" stroke-width="1.5"></path><path d="M1591.28 534.48L1426.95 385.63" stroke="hsl(228.5, 77.2%, 51.5%)" stroke-width="1.5"></path><path d="M1591.28 534.48L1309.55 670.01" stroke="hsl(228.5, 77.2%, 51.5%)" stroke-width="1.5"></path><path d="M1591.28 534.48L1262.8 495.46" stroke="hsl(228.5, 77.2%, 51.5%)" stroke-width="1.5"></path><path d="M-46.18 506.18L-46.18 506.18" stroke="hsl(228.5, 77.2%, 51.5%)" stroke-width="1.5"></path><path d="M-46.18 506.18L-69.04 696.7" stroke="hsl(228.5, 77.2%, 51.5%)" stroke-width="1.5"></path><path d="M-69.04 696.7L-69.04 696.7" stroke="hsl(228.5, 77.2%, 51.5%)" stroke-width="1.5"></path><path d="M195.86 679.82L195.86 679.82" stroke="hsl(228.5, 77.2%, 51.5%)" stroke-width="1.5"></path><path d="M195.86 679.82L387.04 645" stroke="hsl(228.5, 77.2%, 51.5%)" stroke-width="1.5"></path><path d="M195.86 679.82L359.47 507.9" stroke="hsl(228.5, 77.2%, 51.5%)" stroke-width="1.5"></path><path d="M195.86 679.82L-69.04 696.7" stroke="hsl(228.5, 77.2%, 51.5%)" stroke-width="1.5"></path><path d="M195.86 679.82L-46.18 506.18" stroke="hsl(228.5, 77.2%, 51.5%)" stroke-width="1.5"></path><path d="M359.47 507.9L359.47 507.9" stroke="hsl(228.5, 77.2%, 51.5%)" stroke-width="1.5"></path><path d="M359.47 507.9L387.04 645" stroke="hsl(228.5, 77.2%, 51.5%)" stroke-width="1.5"></path><path d="M359.47 507.9L519.81 407.87" stroke="hsl(228.5, 77.2%, 51.5%)" stroke-width="1.5"></path><path d="M387.04 645L387.04 645" stroke="hsl(228.5, 77.2%, 51.5%)" stroke-width="1.5"></path><path d="M387.04 645L552.68 663.67" stroke="hsl(228.5, 77.2%, 51.5%)" stroke-width="1.5"></path><path d="M519.81 407.87L519.81 407.87" stroke="hsl(228.5, 77.2%, 51.5%)" stroke-width="1.5"></path><path d="M519.81 407.87L560.82 521.23" stroke="hsl(228.5, 77.2%, 51.5%)" stroke-width="1.5"></path><path d="M519.81 407.87L647.03 394.62" stroke="hsl(228.5, 77.2%, 51.5%)" stroke-width="1.5"></path><path d="M519.81 407.87L693.48 561.55" stroke="hsl(228.5, 77.2%, 51.5%)" stroke-width="1.5"></path><path d="M519.81 407.87L552.68 663.67" stroke="hsl(228.5, 77.2%, 51.5%)" stroke-width="1.5"></path><path d="M519.81 407.87L387.04 645" stroke="hsl(228.5, 77.2%, 51.5%)" stroke-width="1.5"></path><path d="M560.82 521.23L560.82 521.23" stroke="hsl(228.5, 77.2%, 51.5%)" stroke-width="1.5"></path><path d="M560.82 521.23L693.48 561.55" stroke="hsl(228.5, 77.2%, 51.5%)" stroke-width="1.5"></path><path d="M560.82 521.23L552.68 663.67" stroke="hsl(228.5, 77.2%, 51.5%)" stroke-width="1.5"></path><path d="M552.68 663.67L552.68 663.67" stroke="hsl(228.5, 77.2%, 51.5%)" stroke-width="1.5"></path><path d="M552.68 663.67L647.68 700.56" stroke="hsl(228.5, 77.2%, 51.5%)" stroke-width="1.5"></path><path d="M552.68 663.67L693.48 561.55" stroke="hsl(228.5, 77.2%, 51.5%)" stroke-width="1.5"></path><path d="M647.03 394.62L647.03 394.62" stroke="hsl(228.5, 77.2%, 51.5%)" stroke-width="1.5"></path><path d="M647.03 394.62L792.94 366.11" stroke="hsl(228.5, 77.2%, 51.5%)" stroke-width="1.5"></path><path d="M693.48 561.55L693.48 561.55" stroke="hsl(228.5, 77.2%, 51.5%)" stroke-width="1.5"></path><path d="M693.48 561.55L827.83 521.73" stroke="hsl(228.5, 77.2%, 51.5%)" stroke-width="1.5"></path><path d="M693.48 561.55L647.68 700.56" stroke="hsl(228.5, 77.2%, 51.5%)" stroke-width="1.5"></path><path d="M693.48 561.55L806.34 674.82" stroke="hsl(228.5, 77.2%, 51.5%)" stroke-width="1.5"></path><path d="M647.68 700.56L647.68 700.56" stroke="hsl(228.5, 77.2%, 51.5%)" stroke-width="1.5"></path><path d="M647.68 700.56L806.34 674.82" stroke="hsl(228.5, 77.2%, 51.5%)" stroke-width="1.5"></path><path d="M647.68 700.56L560.82 521.23" stroke="hsl(228.5, 77.2%, 51.5%)" stroke-width="1.5"></path><path d="M647.68 700.56L827.83 521.73" stroke="hsl(228.5, 77.2%, 51.5%)" stroke-width="1.5"></path><path d="M647.68 700.56L387.04 645" stroke="hsl(228.5, 77.2%, 51.5%)" stroke-width="1.5"></path><path d="M792.94 366.11L792.94 366.11" stroke="hsl(228.5, 77.2%, 51.5%)" stroke-width="1.5"></path><path d="M792.94 366.11L827.83 521.73" stroke="hsl(228.5, 77.2%, 51.5%)" stroke-width="1.5"></path><path d="M792.94 366.11L693.48 561.55" stroke="hsl(228.5, 77.2%, 51.5%)" stroke-width="1.5"></path><path d="M827.83 521.73L827.83 521.73" stroke="hsl(228.5, 77.2%, 51.5%)" stroke-width="1.5"></path><path d="M827.83 521.73L806.34 674.82" stroke="hsl(228.5, 77.2%, 51.5%)" stroke-width="1.5"></path><path d="M806.34 674.82L806.34 674.82" stroke="hsl(228.5, 77.2%, 51.5%)" stroke-width="1.5"></path><path d="M806.34 674.82L996.39 641.26" stroke="hsl(228.5, 77.2%, 51.5%)" stroke-width="1.5"></path><path d="M806.34 674.82L998.47 543.34" stroke="hsl(228.5, 77.2%, 51.5%)" stroke-width="1.5"></path><path d="M806.34 674.82L552.68 663.67" stroke="hsl(228.5, 77.2%, 51.5%)" stroke-width="1.5"></path><path d="M999.52 222.8L999.52 222.8" stroke="hsl(228.5, 77.2%, 51.5%)" stroke-width="1.5"></path><path d="M999.52 222.8L1124.96 361.02" stroke="hsl(228.5, 77.2%, 51.5%)" stroke-width="1.5"></path><path d="M998.47 543.34L998.47 543.34" stroke="hsl(228.5, 77.2%, 51.5%)" stroke-width="1.5"></path><path d="M998.47 543.34L996.39 641.26" stroke="hsl(228.5, 77.2%, 51.5%)" stroke-width="1.5"></path><path d="M998.47 543.34L1099.88 642.84" stroke="hsl(228.5, 77.2%, 51.5%)" stroke-width="1.5"></path><path d="M998.47 543.34L1145.78 526.84" stroke="hsl(228.5, 77.2%, 51.5%)" stroke-width="1.5"></path><path d="M998.47 543.34L827.83 521.73" stroke="hsl(228.5, 77.2%, 51.5%)" stroke-width="1.5"></path><path d="M998.47 543.34L1124.96 361.02" stroke="hsl(228.5, 77.2%, 51.5%)" stroke-width="1.5"></path><path d="M996.39 641.26L996.39 641.26" stroke="hsl(228.5, 77.2%, 51.5%)" stroke-width="1.5"></path><path d="M996.39 641.26L1099.88 642.84" stroke="hsl(228.5, 77.2%, 51.5%)" stroke-width="1.5"></path><path d="M996.39 641.26L1145.78 526.84" stroke="hsl(228.5, 77.2%, 51.5%)" stroke-width="1.5"></path><path d="M996.39 641.26L827.83 521.73" stroke="hsl(228.5, 77.2%, 51.5%)" stroke-width="1.5"></path><path d="M1147.83 75.65L1147.83 75.65" stroke="hsl(228.5, 77.2%, 51.5%)" stroke-width="1.5"></path><path d="M1124.96 361.02L1124.96 361.02" stroke="hsl(228.5, 77.2%, 51.5%)" stroke-width="1.5"></path><path d="M1124.96 361.02L1145.78 526.84" stroke="hsl(228.5, 77.2%, 51.5%)" stroke-width="1.5"></path><path d="M1124.96 361.02L1243.2 232.65" stroke="hsl(228.5, 77.2%, 51.5%)" stroke-width="1.5"></path><path d="M1099.88 642.84L1099.88 642.84" stroke="hsl(228.5, 77.2%, 51.5%)" stroke-width="1.5"></path><path d="M1281.02 -99.81L1281.02 -99.81" stroke="hsl(228.5, 77.2%, 51.5%)" stroke-width="1.5"></path><path d="M1281.02 -99.81L1388.27 -97.96" stroke="hsl(228.5, 77.2%, 51.5%)" stroke-width="1.5"></path><path d="M1281.02 -99.81L1256.17 68.69" stroke="hsl(228.5, 77.2%, 51.5%)" stroke-width="1.5"></path><path d="M1281.02 -99.81L1147.83 75.65" stroke="hsl(228.5, 77.2%, 51.5%)" stroke-width="1.5"></path><path d="M1281.02 -99.81L1425.43 99.05" stroke="hsl(228.5, 77.2%, 51.5%)" stroke-width="1.5"></path><path d="M1281.02 -99.81L1599.87 -72.6" stroke="hsl(228.5, 77.2%, 51.5%)" stroke-width="1.5"></path><path d="M1281.02 -99.81L1243.2 232.65" stroke="hsl(228.5, 77.2%, 51.5%)" stroke-width="1.5"></path><path d="M1243.2 232.65L1243.2 232.65" stroke="hsl(228.5, 77.2%, 51.5%)" stroke-width="1.5"></path><path d="M1262.8 495.46L1262.8 495.46" stroke="hsl(228.5, 77.2%, 51.5%)" stroke-width="1.5"></path><path d="M1262.8 495.46L1395.49 547.06" stroke="hsl(228.5, 77.2%, 51.5%)" stroke-width="1.5"></path><path d="M1262.8 495.46L1309.55 670.01" stroke="hsl(228.5, 77.2%, 51.5%)" stroke-width="1.5"></path><path d="M1262.8 495.46L1124.96 361.02" stroke="hsl(228.5, 77.2%, 51.5%)" stroke-width="1.5"></path><path d="M1309.55 670.01L1309.55 670.01" stroke="hsl(228.5, 77.2%, 51.5%)" stroke-width="1.5"></path><path d="M1309.55 670.01L1395.49 547.06" stroke="hsl(228.5, 77.2%, 51.5%)" stroke-width="1.5"></path><path d="M1388.27 -97.96L1388.27 -97.96" stroke="hsl(228.5, 77.2%, 51.5%)" stroke-width="1.5"></path><path d="M1388.27 -97.96L1425.43 99.05" stroke="hsl(228.5, 77.2%, 51.5%)" stroke-width="1.5"></path><path d="M1442.61 231.71L1442.61 231.71" stroke="hsl(228.5, 77.2%, 51.5%)" stroke-width="1.5"></path><path d="M1442.61 231.71L1582.71 373.55" stroke="hsl(228.5, 77.2%, 51.5%)" stroke-width="1.5"></path><path d="M1442.61 231.71L1243.2 232.65" stroke="hsl(228.5, 77.2%, 51.5%)" stroke-width="1.5"></path><path d="M1442.61 231.71L1281.56 386.45" stroke="hsl(228.5, 77.2%, 51.5%)" stroke-width="1.5"></path><path d="M1442.61 231.71L1256.17 68.69" stroke="hsl(228.5, 77.2%, 51.5%)" stroke-width="1.5"></path><path d="M1395.49 547.06L1395.49 547.06" stroke="hsl(228.5, 77.2%, 51.5%)" stroke-width="1.5"></path><path d="M1599.87 -72.6L1599.87 -72.6" stroke="hsl(228.5, 77.2%, 51.5%)" stroke-width="1.5"></path><path d="M1599.87 -72.6L1388.27 -97.96" stroke="hsl(228.5, 77.2%, 51.5%)" stroke-width="1.5"></path><path d="M1599.87 -72.6L1425.43 99.05" stroke="hsl(228.5, 77.2%, 51.5%)" stroke-width="1.5"></path><path d="M1582.71 373.55L1582.71 373.55" stroke="hsl(228.5, 77.2%, 51.5%)" stroke-width="1.5"></path><path d="M1595.13 688.1L1595.13 688.1" stroke="hsl(228.5, 77.2%, 51.5%)" stroke-width="1.5"></path><path d="M1595.13 688.1L1395.49 547.06" stroke="hsl(228.5, 77.2%, 51.5%)" stroke-width="1.5"></path><path d="M1595.13 688.1L1309.55 670.01" stroke="hsl(228.5, 77.2%, 51.5%)" stroke-width="1.5"></path><path d="M1595.13 688.1L1582.71 373.55" stroke="hsl(228.5, 77.2%, 51.5%)" stroke-width="1.5"></path><path d="M1595.13 688.1L1426.95 385.63" stroke="hsl(228.5, 77.2%, 51.5%)" stroke-width="1.5"></path><path d="M1595.13 688.1L1262.8 495.46" stroke="hsl(228.5, 77.2%, 51.5%)" stroke-width="1.5"></path><circle r="25" cx="100.86" cy="642.86" fill="url(#SvgjsRadialGradient1107)"></circle><circle r="25" cx="942.98" cy="402.27" fill="url(#SvgjsRadialGradient1107)"></circle><circle r="25" cx="1134.22" cy="206.29" fill="url(#SvgjsRadialGradient1107)"></circle><circle r="25" cx="1145.78" cy="526.84" fill="url(#SvgjsRadialGradient1107)"></circle><circle r="25" cx="1256.17" cy="68.69" fill="url(#SvgjsRadialGradient1107)"></circle><circle r="25" cx="1281.56" cy="386.45" fill="url(#SvgjsRadialGradient1107)"></circle><circle r="25" cx="1425.43" cy="99.05" fill="url(#SvgjsRadialGradient1107)"></circle><circle r="25" cx="1426.95" cy="385.63" fill="url(#SvgjsRadialGradient1107)"></circle><circle r="25" cx="1591.28" cy="534.48" fill="url(#SvgjsRadialGradient1107)"></circle><circle r="5" cx="-46.18" cy="506.18" fill="#8b9ad9"></circle><circle r="5" cx="-69.04" cy="696.7" fill="#8b9ad9"></circle><circle r="5" cx="195.86" cy="679.82" fill="#8b9ad9"></circle><circle r="5" cx="359.47" cy="507.9" fill="#8b9ad9"></circle><circle r="5" cx="387.04" cy="645" fill="#8b9ad9"></circle><circle r="5" cx="519.81" cy="407.87" fill="#8b9ad9"></circle><circle r="5" cx="560.82" cy="521.23" fill="#8b9ad9"></circle><circle r="5" cx="552.68" cy="663.67" fill="#8b9ad9"></circle><circle r="5" cx="647.03" cy="394.62" fill="#8b9ad9"></circle><circle r="5" cx="693.48" cy="561.55" fill="#8b9ad9"></circle><circle r="5" cx="647.68" cy="700.56" fill="#8b9ad9"></circle><circle r="5" cx="792.94" cy="366.11" fill="#8b9ad9"></circle><circle r="5" cx="827.83" cy="521.73" fill="#8b9ad9"></circle><circle r="5" cx="806.34" cy="674.82" fill="#8b9ad9"></circle><circle r="5" cx="999.52" cy="222.8" fill="#8b9ad9"></circle><circle r="5" cx="998.47" cy="543.34" fill="#8b9ad9"></circle><circle r="5" cx="996.39" cy="641.26" fill="#8b9ad9"></circle><circle r="5" cx="1147.83" cy="75.65" fill="#8b9ad9"></circle><circle r="5" cx="1124.96" cy="361.02" fill="#8b9ad9"></circle><circle r="5" cx="1099.88" cy="642.84" fill="#8b9ad9"></circle><circle r="5" cx="1281.02" cy="-99.81" fill="#8b9ad9"></circle><circle r="5" cx="1243.2" cy="232.65" fill="#8b9ad9"></circle><circle r="5" cx="1262.8" cy="495.46" fill="#8b9ad9"></circle><circle r="5" cx="1309.55" cy="670.01" fill="#8b9ad9"></circle><circle r="5" cx="1388.27" cy="-97.96" fill="#8b9ad9"></circle><circle r="5" cx="1442.61" cy="231.71" fill="#8b9ad9"></circle><circle r="5" cx="1395.49" cy="547.06" fill="#8b9ad9"></circle><circle r="5" cx="1599.87" cy="-72.6" fill="#8b9ad9"></circle><circle r="5" cx="1582.71" cy="373.55" fill="#8b9ad9"></circle><circle r="5" cx="1595.13" cy="688.1" fill="#8b9ad9"></circle></g><defs><mask id="SvgjsMask1105"><rect width="1440" height="560" fill="#ffffff"></rect></mask><linearGradient x1="15.28%" y1="-39.29%" x2="84.72%" y2="139.29%" gradientUnits="userSpaceOnUse" id="SvgjsLinearGradient1106"><stop stop-color="#0e2a47" offset="0"></stop><stop stop-color="rgba(0, 78, 158, 1)" offset="1"></stop></linearGradient><radialGradient id="SvgjsRadialGradient1107"><stop stop-color="#ffffff" offset="0.1"></stop><stop stop-color="#1735b3" offset="0.2"></stop><stop stop-color="rgba(23, 53, 179, 0)" offset="1"></stop></radialGradient></defs></svg>