<?xml version="1.0" encoding="iso-8859-1"?>
<!-- Generator: Adobe Illustrator 19.0.0, SVG Export Plug-In . SVG Version: 6.00 Build 0)  -->
<svg version="1.1" id="Layer_1" xmlns="http://www.w3.org/2000/svg" xmlns:xlink="http://www.w3.org/1999/xlink" x="0px" y="0px"
	 viewBox="0 0 512 512" style="enable-background:new 0 0 512 512;" xml:space="preserve">
<path style="fill:#0076CF;" d="M511.344,274.266C511.77,268.231,512,262.143,512,256C512,114.615,397.385,0,256,0S0,114.615,0,256
	c0,117.769,79.53,216.949,187.809,246.801L511.344,274.266z"/>
<path style="fill:#00477D;" d="M511.344,274.266L314.991,77.913L119.096,434.087l68.714,68.714C209.522,508.787,232.385,512,256,512
	C391.243,512,501.976,407.125,511.344,274.266z"/>
<polygon style="fill:#FFFFFF;" points="278.328,333.913 255.711,77.913 119.096,77.913 119.096,311.652 "/>
<polygon style="fill:#E8E6E6;" points="392.904,311.652 392.904,155.826 337.252,133.565 314.991,77.913 255.711,77.913 
	256.067,333.913 "/>
<polygon style="fill:#FFFFFF;" points="314.991,155.826 314.991,77.913 392.904,155.826 "/>
<rect x="119.096" y="311.652" style="fill:#F83489;" width="273.809" height="122.435"/>
<g>
	<path style="fill:#FFFFFF;" d="M221.482,399.362l-0.076-34.434l-12.714,29.136h-8.779l-12.714-29.136v34.434h-12.033v-53.051
		h14.758l14.379,31.559l14.378-31.559h14.682v53.051H221.482z"/>
	<path style="fill:#FFFFFF;" d="M267.35,368.257c7.72,1.211,13.17,6.282,13.17,14.455c0,10.14-7.947,17.254-20.283,17.254
		c-7.265,0-14.909-2.573-19.752-6.432l5.449-10.218c3.935,4.24,8.476,6.432,13.243,6.432c5.298,0,8.173-2.572,8.173-6.886
		c0-4.466-2.951-6.659-8.248-6.659h-8.477v-7.189l11.806-12.261h-19.298V346.46h34.965v7.643l-13.244,13.774L267.35,368.257z"/>
	<path style="fill:#FFFFFF;" d="M337.737,377.112c0,14.001-9.308,22.855-24.142,22.855c-14.909,0-24.445-8.854-24.445-22.855
		v-30.724h13.472v30.724c0,7.19,4.615,11.579,11.049,11.579c6.357,0,10.671-4.389,10.671-11.579v-30.724h13.396v30.724H337.737z"/>
</g>
<g>
</g>
<g>
</g>
<g>
</g>
<g>
</g>
<g>
</g>
<g>
</g>
<g>
</g>
<g>
</g>
<g>
</g>
<g>
</g>
<g>
</g>
<g>
</g>
<g>
</g>
<g>
</g>
<g>
</g>
</svg>
