<?xml version="1.0" encoding="iso-8859-1"?>
<!-- Generator: Adobe Illustrator 19.0.0, SVG Export Plug-In . SVG Version: 6.00 Build 0)  -->
<svg version="1.1" id="Layer_1" xmlns="http://www.w3.org/2000/svg" xmlns:xlink="http://www.w3.org/1999/xlink" x="0px" y="0px"
	 viewBox="0 0 512 512" style="enable-background:new 0 0 512 512;" xml:space="preserve">
<path style="fill:#9187C5;" d="M511.344,274.266C511.77,268.231,512,262.143,512,256C512,114.615,397.385,0,256,0S0,114.615,0,256
	c0,117.769,79.53,216.949,187.809,246.801L511.344,274.266z"/>
<path style="fill:#6A5CAF;" d="M511.344,274.266L314.991,77.913L119.096,434.087l68.714,68.714C209.522,508.787,232.385,512,256,512
	C391.243,512,501.976,407.125,511.344,274.266z"/>
<polygon style="fill:#FFFFFF;" points="278.328,333.913 255.711,77.913 119.096,77.913 119.096,311.652 "/>
<polygon style="fill:#E8E6E6;" points="392.904,311.652 392.904,155.826 337.252,133.565 314.991,77.913 255.711,77.913 
	256.067,333.913 "/>
<polygon style="fill:#FFFFFF;" points="314.991,155.826 314.991,77.913 392.904,155.826 "/>
<rect x="119.096" y="311.652" style="fill:#1B0683;" width="273.809" height="122.435"/>
<g>
	<path style="fill:#FFFFFF;" d="M231.472,372.798c0,15.439-12.26,27.169-28.683,27.169c-16.347,0-28.606-11.655-28.606-27.169
		c0-15.439,12.26-26.866,28.606-26.866C219.212,345.933,231.472,357.436,231.472,372.798z M187.956,372.874
		c0,8.93,6.888,15.817,14.985,15.817c8.173,0,14.681-6.888,14.681-15.817s-6.509-15.665-14.681-15.665
		C194.767,357.209,187.956,363.944,187.956,372.874z"/>
	<path style="fill:#FFFFFF;" d="M263.263,346.387c16.65,0,28.152,10.746,28.152,26.487c0,15.666-11.655,26.488-28.683,26.488
		h-22.247v-52.975H263.263z M253.954,388.615h9.611c8.25,0,14.152-6.357,14.152-15.665c0-9.384-6.205-15.817-14.757-15.817h-9.007
		V388.615z"/>
	<path style="fill:#FFFFFF;" d="M323.207,357.209v42.153h-13.471v-42.153h-15.816v-10.898h45.255v10.898H323.207z"/>
</g>
<g>
</g>
<g>
</g>
<g>
</g>
<g>
</g>
<g>
</g>
<g>
</g>
<g>
</g>
<g>
</g>
<g>
</g>
<g>
</g>
<g>
</g>
<g>
</g>
<g>
</g>
<g>
</g>
<g>
</g>
</svg>
